<?xml version="1.0"?><svg version="1.2" baseProfile="tiny-ps" viewBox="0 0 300 300" xmlns="http://www.w3.org/2000/svg" xmlns:xlink="http://www.w3.org/1999/xlink"><title>envoyou.com-email</title><g><g fill="#fff" transform="matrix(.1 0 0 -.1 0 300)"><path d="M0 1500V0h3000v3000H0V1500z"/></g><g fill="#d5efe0" transform="matrix(.1 0 0 -.1 0 300)"><path d="M1335 2453c-65-10-151-36-204-63-102-51-226-154-303-250-35-44-98-149-98-164 0-4 28 18 62 49l63 56 70 35c39 19 104 44 145 54l75 20 180-1h180l70-13 70-14-161-1-161-1-89-15c-104-18-187-46-264-89l-55-30-65-66-65-66-33-61c-17-33-32-67-32-76v-14l63-31c74-36 170-69 240-83l52-9 71 10c40 5 97 19 127 30l55 21 138 91c162 107 236 145 310 161l54 11 77-11 78-11 99-51c55-28 101-49 103-47s-10 39-26 83l-31 78-52 80-52 80-61 61-61 62-69 45c-104 66-146 85-248 111-94 25-199 37-252 29zm465-47c0-2 42-36 94-75 157-118 237-220 299-383l31-83v-160l1-160-19-65c-50-170-148-291-295-361l-63-31-97-20-96-20-125 6c-69 4-156 12-195 19l-70 13h175l175-1 75 19 75 18 91 43 90 44 54 48c54 48 130 138 130 153 0 11-145 103-195 125-22 9-62 24-90 33l-50 15-90 1-90 1-55-19c-30-10-129-56-220-101l-165-82-53-12c-142-30-251 0-399 110-29 22-55 39-58 39-10 0-5-45 16-119l21-76 41-80 42-79 57-72 58-72 72-55c116-88 206-131 343-162l70-17h106l107-1 73 18c164 40 282 103 400 213l79 74 46 70c53 79 94 174 120 275l18 68v240l-18 75-18 75-39 83c-49 106-111 193-189 265l-61 57-83 49c-79 46-126 68-126 57zM774 629c3-17 6-38 6-45v-14h39l10 18 10 17 1-17v-18h38l9 38 9 37 8-37 7-38h39v34l14-19 13-18 17 6 16 6v41h20v-41l16-6 17-6 13 18 14 19v-34h39l8 43 9 42-9 4c-4 1-15-5-22-15l-14-19-1 18v17h-31l-9-22-9-23v23l-1 22h-60l-1-22v-23l-9 23-9 22h-31v-17l-1-18-10 18-10 17h-48l-10-17-10-18-1 18v17h-31l-9-22-9-23v23l-1 22h-32l6-31zm413 2-11-30-18-4c-10-3-18-10-18-16v-11h40v20l24-15 25-16 21 11 21 11-3 37-3 37-33 3-33 3-12-30zm93-16v-45h30v60h20v-60h40l1 38 1 37 12-35 13-35 20-3 20-3 17 41c20 49 20 50 1 50h-14l-12-22-12-22-8 21-7 20-61 2-61 1v-45zm202 33-12-12v-57l23-8 22-8 20 7 20 7 3 27 3 27-12 15-11 14h-22c-12 0-27-5-34-12zm46-35c-4-22-22-20-26 1l-3 16h32l-3-17zm32 42c0-3 7-22 15-42 8-19 15-39 15-44s-7-9-15-9h-15v-30h18c28 0 38 12 60 73l22 57h-40l-1-22v-23l-16 23c-14 19-43 31-43 17zm112-7-12-12v-57l22-8c12-4 30-6 40-3l18 4 7 26 6 25-10 16-10 16-24 3-24 3-13-13zm46-35c-4-22-22-20-26 1l-3 16h32l-3-17zm42 8v-39l13-10 12-10 33 5 32 5v88h-40v-70h-20v70h-30v-39zm152 27-12-12v-57l22-8c12-4 30-6 40-3l18 4v29l-22-3-23-3-3 18-4 19 24-4 23-3v30l-25 3-25 3-13-13zm85 6c-4-4-7-22-7-40v-33l18-10 19-10 21 6 22 5 7 26 6 25-10 16-10 16-29 3c-17 2-33 0-37-4zm51-41c-4-22-22-20-26 1l-3 16h32l-3-17zm42 2v-45h30v60h20v-60h39l4 33 4 32 1-32 2-33h40v33c0 17-4 37-8 43l-7 12-62 1-63 1v-45zm-230-30v-15h30v30h-30v-15z"/></g><g fill="#9ee0ba" transform="matrix(.1 0 0 -.1 0 300)"><path d="M1265 2436c-124-30-274-124-382-240-61-65-143-181-143-203v-12l28 26c95 89 180 136 299 167l61 16h198l199-1 65-13 65-12-195-6-195-7-90-20-90-21-75-36-75-37-80-81-80-82-30-57-30-58 25-19c33-25 152-76 226-95l58-15h132l57 15c77 20 139 53 281 148 66 44 149 93 184 110l65 31 76 4 77 4 64-16 65-17 79-44 78-45-6 33c-10 49-71 173-121 242-24 34-79 95-123 136l-79 74-91 48-91 48-97 24-97 25-81-1-81-1-50-12zm535-30c0-2 25-20 56-40 30-21 91-72 136-114l80-76 49-76 50-75 30-95 31-95v-130l-1-130-20-80c-12-44-35-109-53-145l-31-64-67-66-66-65-66-32c-36-18-92-40-124-49l-59-16-130-5-130-5-105 16c-58 9-118 20-133 24l-27 7h445l95 33c148 52 245 118 325 222l46 59-48 36c-61 45-179 103-246 121l-52 14h-161l-54-16c-30-9-125-51-211-94-85-43-182-86-214-95l-58-17-86 4-86 4-65 32c-36 17-92 52-125 77l-60 45-3-9c-2-5 7-46 18-91l21-83 36-71c51-102 112-184 191-257 106-98 211-154 363-196l64-18h280l79 23 80 23 85 44 86 45 63 51c83 67 157 158 210 257l43 81 24 97 25 97v216l-15 71c-20 97-66 208-119 288l-43 67-69 67c-75 74-105 96-205 151-62 35-79 42-79 33zM776 624c8-48 12-54 28-54h14l7 23 8 22 4-22 4-23h14c18 0 22 7 30 53l7 37h-10c-6 0-14-10-18-22l-7-23-8 23c-11 30-27 28-36-5l-7-28-6 24c-3 14-11 26-18 29l-13 4 7-38zm124 22c0-7 3-28 6-45l7-31h28l8 22 8 23 7-23 7-22h30l6 30c3 17 9 30 13 30s10-13 14-30l6-30h29l7 22 7 23 8-23 8-22h29l6 31c9 44 8 59-4 59-5 0-10-7-10-15s-4-15-10-15c-5 0-10 7-10 15v15h-27l-11-22-11-23v23l-1 22h-60l-1-27-1-28-10 28c-12 33-26 35-37 5l-8-23-7 23c-8 24-26 30-26 8zm301 0-12-15 3-28 3-28h68l3 30 3 29-11 13c-14 17-43 17-57-1zm79-32v-44h29l3 33 3 32h20l3-32 3-33h29v68l-12 9c-7 6-28 11-45 11l-33 1v-45zm100 34c0-6 5-27 12-45l12-33h34l15 45 16 45h-27l-10-27-10-28-11 28c-11 27-31 37-31 15zm102 0c-13-13-15-37-6-62l6-16h54l12 12c28 28 7 78-33 78-12 0-26-5-33-12zm48-39v-19h-30v18c0 10 3 22 6 25 11 10 24-3 24-24zm48 5 17-45-18-10c-9-6-17-15-17-20v-10l23 3 22 3 22 45c12 25 22 53 23 63v17h-11c-6 0-13-9-16-20s-9-20-13-20c-5 0-12 9-15 20l-6 20h-28l17-46zm94 34c-7-7-12-22-12-34v-22l14-12 15-12 22 4 22 3 10 17 11 16-12 26-12 26h-23c-13 0-28-5-35-12zm48-39v-19h-30v18c0 10 3 22 6 25 11 10 24-3 24-24zm42 9 3-43 38-3 37-3v91h-19l-3-32-3-31-12-5-13-4v72h-31l3-42zm150 30c-6-6-12-22-12-34v-22l14-12 15-12 22 4 22 3 5 13 4 13-27-7-27-7 4 24 3 24 24-3 23-4-4 14-5 13-24 3-24 3-13-13zm89-2-12-15 3-28 3-28 32-3 33-3 11 24 11 24-11 22-12 21h-47l-11-14zm46-40c-4-9-11-16-17-16h-10v18c0 10 3 22 7 26l7 6 9-9 10-10-6-15zm43 9v-45h30v59l10 6 10 6v-71h29l3 33 3 32h20l3-32 3-33h20l-3 43-3 42-62 3-63 2v-45zm-940-29v-16h32l-4 12c-2 6-10 14-16 16l-12 4v-16zm717 7c-12-11-8-23 8-23h15v15c0 16-12 20-23 8z"/></g><g fill="#6bc591" transform="matrix(.1 0 0 -.1 0 300)"><path d="M1267 2434c-33-8-93-31-134-51l-75-38-79-64-80-63-53-67c-29-36-66-88-82-116l-28-50 40 36c90 80 187 131 304 160l55 14 200-1 200-1 70-15 70-14-195-7-195-6-95-20-95-20-85-42-85-42-70-71-70-71-34-64-33-63 13-10c8-5 46-25 84-44l70-34 79-20 79-20h46c118 1 222 43 404 165 61 42 139 89 172 106l60 29 57 9 56 10 69-10 68-9 95-47c52-27 99-50 104-52l8-3-7 23c-3 13-24 62-46 108l-40 85-50 68c-181 244-517 384-772 322zm573-51c13-10 57-44 97-76l72-58 55-66c67-80 116-172 147-273l24-75-1-135v-135l-17-65c-10-36-33-98-52-139l-35-73-69-69-69-69-74-35-74-35-74-16-75-16h-250l-90 16c-49 9-110 22-135 31l-45 15 35-6c19-2 104-7 188-11l154-5 76 12c97 15 214 57 287 101l57 34 74 78c41 43 74 85 74 92v14l-72 45c-134 83-232 116-346 116h-58l-59-15-60-16-170-83c-93-46-188-90-210-97l-40-12-80-1h-80l-59 23c-32 13-94 48-138 77-43 30-80 54-82 54s3-30 11-67c30-134 91-253 189-368l53-63 63-47c84-63 178-109 285-140l88-26 95-6 95-5 90 17 90 17 72 28c244 94 432 300 503 552l21 73 6 100 5 100-11 75c-6 41-23 109-36 150l-25 76-45 77-46 77-66 70-66 70-66 44c-36 24-86 53-111 65l-45 21 25-17zM770 653c0-5 5-25 11-45l10-38h27l7 23 8 22 4-22 4-23h14c17 0 21 6 29 53l7 37h-9c-6 0-13-12-17-27l-8-28-6 24c-4 14-12 26-18 28l-12 4-7-28-7-28-10 28c-8 24-27 38-27 20zm135-35c9-51 10-52 30-45l15 6 1 23 1 23 11-27 11-28h25l7 35c3 19 10 35 14 35s11-16 14-35l7-35h25l11 28 11 27 1-23 1-23 15-6c20-7 21-6 30 45l7 42h-22v-20c0-11-4-20-9-20s-11 9-14 20c-7 28-24 25-32-7l-8-28-6 25-7 25h-48l-7-25-6-25-8 28c-9 33-22 35-35 5l-9-23-7 23c-3 12-11 22-16 22h-10l7-42zm296 28-12-15 3-28 3-28 33-3 32-3v29l-20-5-20-5v22h50v13c0 33-48 49-69 23zm39-16c0-5-4-10-10-10-5 0-10 5-10 10 0 6 5 10 10 10 6 0 10-4 10-10zm46 22c-3-3-6-23-6-44v-38h29l3 33 3 32h20l3-32 3-33h20l-3 43-3 42-32 2c-17 0-34-1-37-5zm94 2c0-4 5-24 12-45l11-39h34l11 39c15 47 15 51 2 51-5 0-12-11-16-25-3-14-10-25-14-25s-11 11-14 25c-6 22-26 36-26 19zm102-6c-29-29-7-78 35-78h22l11 19c14 27 13 37-6 55-18 19-45 21-62 4zm46-36 3-22h-31v52l13-4c6-3 13-14 15-26zm42 39c0-5 7-27 15-50l14-42-21-8-21-8 12-7c27-17 58 23 77 101l6 23h-22l-6-25c-3-14-10-25-14-25s-11 11-14 25c-6 23-26 36-26 16zm98-17-12-26 11-16 10-17 22-3 22-4 15 12c30 26 5 80-37 80h-19l-12-26zm52-25v-19h-30v18c0 10 3 22 6 25 11 10 24-3 24-24zm47 44c-9-8-9-46-1-67l6-16h68v90h-19l-3-32-3-31-12-5-13-4v72h-8c-5 0-12-3-15-7zm141-19-12-26 11-16 10-17h56l5 13 4 13-27-7-27-7 4 24 3 24 23-3 22-3v9c0 11-24 22-46 22h-14l-12-26zm94 14c-29-29-7-78 35-78h22l11 19c14 27 13 37-6 55-18 19-45 21-62 4zm46-36 3-22h-14c-17 0-26 19-19 38l4 13 12-4c6-2 12-13 14-25zm47 40c-3-3-5-23-5-44v-38h29l3 33 3 32h20l3-32 3-33h18l3 33 3 32h20l3-32 3-33h20l-3 43-3 42-57 1c-32 1-60-1-63-4zm-940-63c-10-15 3-25 16-12l11 11-10 6-11 6-6-11zm711 4c-11-11-6-23 9-23 8 0 15 4 15 9 0 13-16 22-24 14z"/></g><g fill="#2fce71" transform="matrix(.1 0 0 -.1 0 300)"><path d="m1295 2435-71-12-74-35c-97-45-181-110-273-209l-74-79-28-52-29-53 53 47 53 48 72 35 71 35 85 21 84 21 196-5 195-5 63-12c34-7 62-15 62-19v-8h-177l-178-1-94-16c-170-31-288-89-387-193l-53-56-30-57c-17-32-31-62-31-68 0-25 162-95 272-118l70-15 81 11 81 11 64 29c35 16 98 54 140 83 125 87 226 145 294 168l63 21 75-6 75-5 54-20c29-11 80-36 113-56 33-19 61-35 64-35 6 0-40 119-65 167-11 23-47 77-80 121l-60 79-68 56c-37 30-102 73-143 95l-75 40-70 21c-63 18-208 42-238 40-7 0-44-7-82-14zm610-96c22-18 74-67 116-108l75-76 43-72 43-72 26-78 26-78 1-150v-150l-18-65c-9-36-34-98-54-139l-37-74-63-62-63-62-72-35c-40-20-104-44-143-54l-70-18-150 1-150 1-102 21c-56 11-112 25-125 31l-23 9 110-7c61-4 164-6 230-6l120 1 84 22c151 39 269 112 361 222 27 33 50 63 50 67 0 10-102 74-175 110-68 34-114 48-197 57l-56 7-70-12-71-12-191-93-191-94-56-11-56-12-61 4-61 5-57 22-58 22-75 54-75 54v-15c0-34 33-143 65-211 43-94 84-153 164-237 102-106 195-164 337-210l79-26 90-9 90-9 90 10 90 9 73 25c254 85 443 265 531 508l29 83 13 100 12 100-12 97-13 97-22 67c-68 199-202 366-361 452l-60 32 40-33zM778 655c-8-8 13-85 23-85 5 0 15 12 21 28l11 27 6-24c4-14 12-26 18-28l11-4 5 18c3 10 8 28 12 41l6 22h-9c-5 0-13-10-16-22l-7-23-13 30-14 30-13-33-14-33-10 31c-6 17-13 28-17 25zm122-2c0-23 22-83 30-83 5 0 12 11 16 25l6 25 9-6c5-3 9-14 9-25v-19h28l7 41c9 50-1 63-13 18l-8-34-13 35-13 35-13-30-13-30-11 28c-10 25-21 36-21 20zm130-4c0-9 3-31 6-48l7-31h27v19c0 11 4 22 9 25l9 6 6-25c6-24 20-33 29-17 2 4 8 24 11 45l7 39-10-7c-6-3-11-15-11-26 0-28-15-23-26 9l-11 27-16-35-15-35-1 20c-1 11-6 27-11 35l-10 15v-16zm176-2-18-13 4-24 3-23 16-10 16-10 19 8 19 9-27 4-28 3v19h60v9c0 11-28 41-39 41-4 0-15-6-25-13zm39-17 6-10h-42l6 10c3 6 10 10 15 10s12-4 15-10zm45-17v-43h20v70h30v-70h21l-3 43-3 42h-32l-33 1v-43zm90 41c0-21 30-84 41-84 13 0 42 68 35 83l-4 12-13-32c-14-33-29-44-29-20 0 7-7 22-15 33l-14 19-1-11zm106-9c-19-19-20-29-6-56l11-19h50l8 23 9 22-13 20c-7 11-19 21-27 23l-16 3-16-16zm44-30v-25h-14c-19 0-29 17-22 35l5 15h31v-25zm40 39c0-6 7-29 16-50l16-38-16-11c-18-14-11-26 10-18l13 5 21 55c11 31 18 58 15 61s-11-9-17-26c-13-32-28-43-28-19 0 7-7 22-15 33l-14 19-1-11zm105-14-18-20 11-25 12-25h49l11 21 11 20-16 25c-19 29-36 30-60 4zm48-12c6-19-3-38-18-38-18 0-28 17-21 35s33 20 39 3zm47-12v-45l35 1 35 1v77h-20v-60h-30v59l-10 6-10 6v-45zm145 24-18-20 11-26 12-25 27 3 26 3 4 12 4 12-28-2-28-2v40l23-1 23-1-4 11c-2 6-10 12-18 14l-15 3-19-21zm91 4c-20-19-20-48-2-64l15-12 23 4 23 3 3 28 3 28-12 15c-15 18-34 18-53-2zm44-29v-25h-14c-19 0-29 17-22 35l5 15h31v-25zm50-2v-43h20v70h30v-70h19l3 32 3 31 13 5 12 4v-72h20v40c0 22-3 41-7 41-5 1-32 2-60 3l-53 1v-42zm-950-33c0-5 5-10 10-10 6 0 10 5 10 10 0 6-4 10-10 10-5 0-10-4-10-10zm715 0c3-5 10-10 16-10 5 0 9 5 9 10 0 6-7 10-16 10h-15l6-10z"/></g><g fill="#252525" transform="matrix(.1 0 0 -.1 0 300)"><path d="M778 655c-8-8 13-85 23-85 5 0 15 12 21 28l11 27 6-24c4-14 12-26 18-28l11-4 5 18c3 10 8 28 12 41l6 22h-9c-5 0-13-10-16-22l-7-23-13 30-14 30-13-33-14-33-10 31c-6 17-13 28-17 25zm122-2c0-23 22-83 30-83 5 0 12 11 16 25l6 25 9-6c5-3 9-14 9-25v-19h28l7 41c9 50-1 63-13 18l-8-34-13 35-13 35-13-30-13-30-11 28c-10 25-21 36-21 20zm130-4c0-9 3-31 6-48l7-31h27v19c0 11 4 22 9 25l9 6 6-25c6-24 20-33 29-17 2 4 8 24 11 45l7 39-10-7c-6-3-11-15-11-26 0-28-15-23-26 9l-11 27-16-35-15-35-1 20c-1 11-6 27-11 35l-10 15v-16zm176-2-18-13 4-24 3-23 16-10 16-10 19 8 19 9-27 4-28 3v19h60v9c0 11-28 41-39 41-4 0-15-6-25-13zm39-17 6-10h-42l6 10c3 6 10 10 15 10s12-4 15-10zm45-17v-43h20v70h30v-70h21l-3 43-3 42h-32l-33 1v-43zm90 41c0-21 30-84 41-84 13 0 42 68 35 83l-4 12-13-32c-14-33-29-44-29-20 0 7-7 22-15 33l-14 19-1-11zm106-9c-19-19-20-29-6-56l11-19h50l8 23 9 22-13 20c-7 11-19 21-27 23l-16 3-16-16zm44-30v-25h-14c-19 0-29 17-22 35l5 15h31v-25zm40 39c0-6 7-29 16-50l16-38-16-11c-18-14-11-26 10-18l13 5 21 55c11 31 18 58 15 61s-11-9-17-26c-13-32-28-43-28-19 0 7-7 22-15 33l-14 19-1-11zm105-14-18-20 11-25 12-25h49l11 21 11 20-16 25c-19 29-36 30-60 4zm48-12c6-19-3-38-18-38-18 0-28 17-21 35s33 20 39 3zm47-12v-45l35 1 35 1v77h-20v-60h-30v59l-10 6-10 6v-45zm145 24-18-20 11-26 12-25 27 3 26 3 4 12 4 12-28-2-28-2v40l23-1 23-1-4 11c-2 6-10 12-18 14l-15 3-19-21zm91 4c-20-19-20-48-2-64l15-12 23 4 23 3 3 28 3 28-12 15c-15 18-34 18-53-2zm44-29v-25h-14c-19 0-29 17-22 35l5 15h31v-25zm50-2v-43h20v70h30v-70h19l3 32 3 31 13 5 12 4v-72h20v40c0 22-3 41-7 41-5 1-32 2-60 3l-53 1v-42zm-950-33c0-5 5-10 10-10 6 0 10 5 10 10 0 6-4 10-10 10-5 0-10-4-10-10zm715 0c3-5 10-10 16-10 5 0 9 5 9 10 0 6-7 10-16 10h-15l6-10z"/></g></g></svg>