<?xml version="1.0"?><svg version="1.2" baseProfile="tiny-ps" viewBox="0 0 300 300" xmlns="http://www.w3.org/2000/svg" xmlns:xlink="http://www.w3.org/1999/xlink"><title>envoyou.com</title><g><g fill="#2ecd70" transform="matrix(.1 0 0 -.1 0 300)"><path d="M1160 2955c-41-7-108-22-149-35l-74-22-93-48c-172-89-310-194-447-340l-85-91-60-87c-54-79-112-182-112-198 0-3 40 32 89 78l89 83 81 49 81 49 88 33c48 18 123 42 167 54l80 21 140 11 140 10 194-6c106-4 226-11 265-16 122-17 247-42 241-48-3-3-130-6-283-7l-277-2-95-12c-216-29-370-71-517-142l-82-39-79-60c-132-99-245-235-313-373l-38-78 5-14 6-14 86-44c178-91 351-147 502-162l65-6 88 11 88 11 82 26c121 38 218 90 431 232 256 170 318 206 427 246l74 28 120 4 120 5 71-15c100-21 211-68 332-138 57-33 106-58 109-55 9 9-55 183-102 276-24 47-71 128-106 180l-63 95-125 126-126 126-80 52c-44 28-135 78-201 111l-122 60-133 34c-215 55-352 66-499 41zm929-103c30-20 91-64 135-96l81-60 115-115 116-116 57-86c31-47 79-133 106-190l50-104 25-88 25-88 12-127 11-127-6-110c-17-287-87-498-225-683l-61-80-57-49c-151-129-326-210-537-250l-91-17h-420l-115 17c-128 20-374 76-366 84 3 3 43-1 88-8l83-14h600l80 19c266 61 456 152 617 296 49 42 208 234 208 249 0 11-141 105-253 169l-89 51-111 35-112 35-80 12-80 11-75-6c-180-16-268-49-605-220l-240-122-70-22c-91-29-172-42-266-42h-76l-77 20-76 19-98 50-97 51-100 75c-55 41-103 75-106 75-4 0-2-21 2-47 46-246 140-461 288-662l51-69 106-102 106-102 99-64C879 111 1083 39 1355 9l110-11 95 6c52 3 138 14 190 22l95 16 103 34c132 43 263 107 382 185l95 63 126 126 125 125 56 85c154 233 238 482 254 757l6 108-11 107c-27 265-104 485-246 706l-57 87-132 130-131 131-55 36c-87 56-293 168-310 168h-15l54-38z"/></g></g></svg>